<?xml version="1.0" encoding="UTF-8" standalone="no"?>
<svg width="159px" height="61px" viewBox="0 0 159 61" version="1.1" xmlns="http://www.w3.org/2000/svg" xmlns:xlink="http://www.w3.org/1999/xlink">
    <!-- Generator: Sketch 39.1 (31720) - http://www.bohemiancoding.com/sketch -->
    <title>Logo</title>
    <desc>Created with Sketch.</desc>
    <defs></defs>
    <g id="Page-1" stroke="none" stroke-width="1" fill="none" fill-rule="evenodd">
        <g id="Desktop-HD" transform="translate(-62.000000, -51.000000)">
            <g id="Logo" transform="translate(62.000000, 51.000000)">
                <path d="M8.8309236,25.2460779 C9.24807069,25.1700256 9.91170383,25.0654552 10.8218429,24.9323636 C11.731982,24.7992721 12.6041856,24.7327273 13.4384798,24.7327273 C14.3106964,24.7327273 15.0786148,24.7992721 15.7422579,24.9323636 C16.4059009,25.0654552 16.9652489,25.3031152 17.4203184,25.6453506 C17.875388,25.9875861 18.216685,26.462906 18.4442198,27.0713247 C18.6717546,27.6797433 18.7855203,28.4782808 18.7855203,29.466961 L18.7855203,50.5713766 C18.7855203,53.9557052 17.818512,56.4939136 15.8844664,58.1860779 C13.9504208,59.8782422 11.1062788,60.7243117 7.35195496,60.7243117 C5.3799869,60.7243117 3.78726737,60.4201069 2.57374856,59.8116883 C1.70153193,59.3934005 1.06634021,58.8230166 0.668154348,58.1005195 C0.269968491,57.3780224 0.0708785488,56.5604721 0.0708785488,55.6478442 C0.0708785488,54.8873209 0.175163757,54.221873 0.383737301,53.6514805 C0.592310845,53.0810881 0.848283628,52.6247809 1.15166333,52.2825455 C1.87219012,52.4346501 2.48842089,52.5392205 3.00037414,52.5962597 C3.51232738,52.653299 4.07167531,52.6818182 4.67843471,52.6818182 C6.15741076,52.6818182 7.21922378,52.3110686 7.86390564,51.5695584 C8.50858751,50.8280482 8.8309236,49.7348124 8.8309236,48.2898182 L8.8309236,25.2460779 Z M24.1461044,33.2315325 C23.8806472,32.8132447 23.6341549,32.2428608 23.4066201,31.5203636 C23.1790853,30.7978665 23.0653196,30.0373546 23.0653196,29.2388052 C23.0653196,27.7557848 23.3971362,26.6910682 24.0607793,26.0446234 C24.7244224,25.3981786 25.5871455,25.074961 26.6489744,25.074961 L51.4501409,25.074961 C51.7155982,25.4932488 51.9620905,26.0636328 52.1896253,26.7861299 C52.41716,27.508627 52.5309257,28.2691389 52.5309257,29.0676883 C52.5309257,30.5507087 52.1991092,31.6154253 51.5354661,32.2618701 C50.871823,32.9083149 50.0090999,33.2315325 48.9472709,33.2315325 L42.6332125,33.2315325 L42.6332125,59.5835325 C42.2160654,59.697611 41.5619127,59.8116877 40.6707349,59.9257662 C39.779557,60.0398447 38.897873,60.0968831 38.0256563,60.0968831 C37.1534397,60.0968831 36.3855213,60.0303383 35.7218782,59.8972468 C35.0582351,59.7641552 34.4988872,59.5264952 34.0438177,59.1842597 C33.5887481,58.8420243 33.2474511,58.3667043 33.0199163,57.7582857 C32.7923815,57.1498671 32.6786158,56.3513296 32.6786158,55.3626494 L32.6786158,33.2315325 L24.1461044,33.2315325 Z M66.7653218,52.6818182 C67.2962362,52.8339228 67.9788303,52.9384932 68.8131245,52.9955325 C69.6474187,53.0525717 70.4437784,53.0810909 71.2022277,53.0810909 C72.7191262,53.0810909 73.9800292,52.7673798 74.9849744,52.1399481 C75.9899197,51.5125163 76.4923848,50.5333573 76.4923848,49.2024416 C76.4923848,47.9475781 76.0752439,47.0539767 75.2409498,46.5216104 C74.4066556,45.9892441 73.1362721,45.7230649 71.4297613,45.7230649 L66.7653218,45.7230649 L66.7653218,52.6818182 Z M66.7653218,38.7643117 L70.9178106,38.7643117 C72.5484765,38.7643117 73.7335357,38.4601069 74.4730237,37.8516883 C75.2125118,37.2432697 75.5822502,36.3496682 75.5822502,35.1708571 C75.5822502,34.1441507 75.1556289,33.3266004 74.3023735,32.7181818 C73.4491181,32.1097632 72.1692542,31.8055584 70.4627434,31.8055584 C69.8939064,31.8055584 69.2397538,31.8245712 68.5002657,31.8625974 C67.7607777,31.9006236 67.1824688,31.957662 66.7653218,32.0337143 L66.7653218,38.7643117 Z M70.4627434,60.7243117 C69.8180615,60.7243117 69.0596236,60.7052989 68.187407,60.6672727 C67.3151903,60.6292466 66.4145454,60.5531954 65.485445,60.4391169 C64.5563447,60.3250384 63.6367388,60.1824424 62.7265997,60.0113247 C61.8164606,59.8402069 60.9821789,59.602547 60.2237297,59.2983377 C58.1379942,58.4997882 57.0951421,57.111854 57.0951421,55.1344935 L57.0951421,28.4972987 C57.0951421,27.6987493 57.313193,27.0808334 57.7493014,26.6435325 C58.1854097,26.2062316 58.7826795,25.8544948 59.5411288,25.5883117 C60.8304925,25.1319977 62.442173,24.7992738 64.3762186,24.5901299 C66.3102641,24.380986 68.3011636,24.2764156 70.3489765,24.2764156 C75.2030518,24.2764156 78.9383583,25.0939659 81.5550082,26.7290909 C84.1716581,28.364216 85.4799635,30.892918 85.4799635,34.3152727 C85.4799635,36.0264501 84.9869788,37.4999419 84.0009948,38.7357922 C83.0150108,39.9716425 81.6877445,40.8747504 80.0191562,41.4451429 C81.9152793,41.9775092 83.4985183,42.9471618 84.7689208,44.3541299 C86.0393233,45.7610979 86.6745151,47.5292881 86.6745151,49.6587532 C86.6745151,53.4233435 85.2808855,56.2087182 82.4935845,58.014961 C79.7062835,59.8212038 75.6960432,60.7243117 70.4627434,60.7243117 L70.4627434,60.7243117 Z M101.932812,52.3966234 C102.34996,52.4726757 102.861905,52.5392205 103.468665,52.5962597 C104.075424,52.653299 104.644252,52.6818182 105.175167,52.6818182 C106.464531,52.6818182 107.64959,52.4916902 108.73038,52.1114286 C109.81117,51.7311669 110.740256,51.1417702 111.517667,50.3432208 C112.295077,49.5446713 112.901828,48.5084739 113.337936,47.2345974 C113.774044,45.9607209 113.992095,44.4301908 113.992095,42.642961 C113.992095,39.2206063 113.195735,36.6443723 111.602992,34.9141818 C110.010249,33.1839913 107.886623,32.3189091 105.23205,32.3189091 C104.701136,32.3189091 104.160749,32.3379219 103.610873,32.3759481 C103.060997,32.4139742 102.501649,32.4710126 101.932812,32.5470649 L101.932812,52.3966234 Z M105.118283,60.7243117 C104.473602,60.7243117 103.734125,60.7052989 102.89983,60.6672727 C102.065536,60.6292466 101.202813,60.5531954 100.311635,60.4391169 C99.4204574,60.3250384 98.5292929,60.1824424 97.638115,60.0113247 C96.7469372,59.8402069 95.922136,59.602547 95.1636867,59.2983377 C93.0779513,58.4997882 92.0350992,57.111854 92.0350992,55.1344935 L92.0350992,28.4972987 C92.0350992,27.6987493 92.2531501,27.0808334 92.6892584,26.6435325 C93.1253667,26.2062316 93.7226366,25.8544948 94.4810858,25.5883117 C96.1117517,25.0559454 97.8371979,24.7042086 99.6574761,24.5330909 C101.477754,24.3619732 103.108396,24.2764156 104.549449,24.2764156 C107.507401,24.2764156 110.190375,24.6376587 112.598452,25.3601558 C115.006528,26.082653 117.073271,27.1949016 118.798743,28.6969351 C120.524215,30.1989685 121.860962,32.0907418 122.809024,34.3723117 C123.757085,36.6538815 124.231109,39.3536987 124.231109,42.4718442 C124.231109,45.5139373 123.776046,48.1662225 122.865907,50.4287792 C121.955768,52.691336 120.656943,54.5926157 118.969394,56.1326753 C117.281844,57.672735 115.262503,58.8230092 112.91131,59.5835325 C110.560118,60.3440558 107.962468,60.7243117 105.118283,60.7243117 L105.118283,60.7243117 Z" id="JTBD" fill="#FFFFFF"></path>
                <path d="M141.418476,34.0649351 C150.799595,34.0649351 158.404494,26.4392396 158.404494,17.0324675 C158.404494,7.62569546 150.799595,0 141.418476,0 C132.037358,0 124.432458,7.62569546 124.432458,17.0324675 C124.432458,26.4392396 132.037358,34.0649351 141.418476,34.0649351 Z M131.980072,19.1642337 L133.624975,16.7555043 L132.240849,14.6132939 C132.11046,14.4054415 132.012669,14.2269258 131.947475,14.0777414 C131.88228,13.9285569 131.849683,13.7852415 131.849683,13.6477907 C131.849683,13.5069874 131.912369,13.380434 132.037744,13.2681266 C132.163118,13.1558193 132.316073,13.0996664 132.496612,13.0996664 C132.703897,13.0996664 132.86521,13.1608479 132.980554,13.2832126 C133.095899,13.4055774 133.25554,13.632703 133.459482,13.9645964 L134.562771,15.7548004 L135.741284,13.9645964 C135.83824,13.8137358 135.920986,13.6846681 135.989524,13.5773894 C136.058062,13.4701107 136.124091,13.3812719 136.187614,13.3108703 C136.251137,13.2404687 136.322182,13.1876682 136.400749,13.1524674 C136.479317,13.1172666 136.570421,13.0996664 136.674064,13.0996664 C136.86129,13.0996664 137.014244,13.1558193 137.132932,13.2681266 C137.25162,13.380434 137.310963,13.5136922 137.310963,13.6679053 C137.310963,13.8925201 137.182247,14.1975892 136.924812,14.583122 L135.475491,16.7555043 L137.035141,19.1642337 C137.17556,19.3754386 137.277529,19.5506019 137.341052,19.689729 C137.404575,19.828856 137.436336,19.960438 137.436336,20.084479 C137.436336,20.201815 137.407919,20.3090921 137.351082,20.4063134 C137.294246,20.5035347 137.214008,20.5806401 137.110365,20.6376319 C137.006722,20.6946237 136.889708,20.7231192 136.759318,20.7231192 C136.618899,20.7231192 136.500213,20.6937856 136.403257,20.6351176 C136.306301,20.5764495 136.227734,20.5035347 136.167554,20.4163707 C136.107375,20.3292068 135.995375,20.1599102 135.831553,19.9084758 L134.537696,17.8668387 L133.1636,19.9688198 C133.056614,20.1364427 132.980554,20.253777 132.93542,20.3208261 C132.890285,20.3878753 132.835957,20.4532473 132.772434,20.516944 C132.708911,20.5806407 132.633687,20.6309268 132.546761,20.6678039 C132.459835,20.7046809 132.357865,20.7231192 132.240849,20.7231192 C132.06031,20.7231192 131.910699,20.6678044 131.792011,20.5571733 C131.673324,20.4465422 131.613981,20.2856266 131.613981,20.0744217 C131.613981,19.8263397 131.73601,19.5229468 131.980072,19.1642337 Z M140.927759,19.8129312 L140.927759,17.474603 L139.132408,14.6836952 C138.975272,14.4322608 138.864108,14.2361449 138.798914,14.0953417 C138.733719,13.9545384 138.701122,13.8321755 138.701122,13.7282493 C138.701122,13.5572739 138.767152,13.4097679 138.899212,13.285727 C139.031273,13.161686 139.194258,13.0996664 139.38817,13.0996664 C139.592112,13.0996664 139.746738,13.1574955 139.852053,13.2731553 C139.957367,13.3888151 140.115337,13.6192932 140.325965,13.9645964 L141.700062,16.2023514 L143.089202,13.9645964 C143.172785,13.8271456 143.242994,13.7114875 143.29983,13.6176187 C143.356667,13.5237499 143.419353,13.4357492 143.487891,13.3536139 C143.556429,13.2714787 143.632488,13.208621 143.716071,13.1650391 C143.799654,13.1214571 143.901624,13.0996664 144.021983,13.0996664 C144.209209,13.0996664 144.365506,13.1608479 144.490881,13.2832126 C144.616255,13.4055774 144.678941,13.5472166 144.678941,13.7081346 C144.678941,13.8388805 144.64718,13.9696244 144.583657,14.1003703 C144.520134,14.2311162 144.411478,14.4121463 144.257686,14.6434659 L142.417199,17.474603 L142.417199,19.8129312 C142.417199,20.1180049 142.346991,20.3459687 142.206571,20.4968293 C142.066152,20.64769 141.887287,20.7231192 141.669972,20.7231192 C141.449313,20.7231192 141.270448,20.6485281 141.133372,20.4993437 C140.996296,20.3501593 140.927759,20.1213574 140.927759,19.8129312 Z M146.028495,18.8775999 L149.804752,14.3467748 L146.56008,14.3467748 C146.332734,14.3467748 146.161392,14.2964887 146.046047,14.1959149 C145.930703,14.0953412 145.873032,13.962921 145.873032,13.7986506 C145.873032,13.6276752 145.930703,13.4893883 146.046047,13.3837859 C146.161392,13.2781834 146.332734,13.225383 146.56008,13.225383 L150.742547,13.225383 C151.284164,13.225383 151.554969,13.4784898 151.554969,13.9847111 C151.554969,14.2260881 151.509835,14.4188516 151.419565,14.5630073 C151.329296,14.707163 151.147088,14.9401554 150.872936,15.2619914 L147.342412,19.4760108 L151.234012,19.4760108 C151.464701,19.4760108 151.636879,19.5237826 151.750552,19.6193277 C151.864225,19.7148728 151.92106,19.848131 151.92106,20.0191064 C151.92106,20.1967867 151.864225,20.3375878 151.750552,20.4415141 C151.636879,20.5454403 151.464701,20.5974026 151.234012,20.5974026 L146.459781,20.5974026 C146.135479,20.5974026 145.891421,20.5244877 145.727598,20.3786558 C145.563776,20.2328238 145.481866,20.037546 145.481866,19.7928166 C145.481866,19.7090051 145.495239,19.6318997 145.521985,19.5614981 C145.548732,19.4910964 145.584672,19.4248864 145.629807,19.3628659 C145.674941,19.3008454 145.737628,19.2220638 145.817867,19.1265187 C145.898107,19.0309737 145.968315,18.9480016 146.028495,18.8775999 Z" id="Combined-Shape" fill="#00FF07"></path>
            </g>
        </g>
    </g>
</svg>